<svg xmlns="http://www.w3.org/2000/svg" xmlns:xlink="http://www.w3.org/1999/xlink" version="1.1" x="0px" y="0px" width="103.998px" height="35.664px" viewBox="3464 1504.168 103.998 35.664" enable-background="new 3464 1504.168 103.998 35.664" xml:space="preserve"><style>.style0{fill:	#006CA4;}.style1{fill:	#005287;}</style><polygon points="3479.4,1504.2 3479.4,1510.7 3494.8,1516.3 3494.8,1513.1" class="style0"/><polygon points="3479.4,1510.7 3470.8,1515.6 3464,1513.1 3479.4,1504.2" class="style1"/><polygon points="3494.8,1524.4 3488,1528.4 3464,1519.6 3464,1513.1" class="style0"/><polygon points="3479.4,1539.8 3479.4,1533.3 3464,1527.7 3464,1530.9" class="style0"/><polygon points="3479.4,1533.3 3494.8,1524.4 3494.8,1530.9 3479.4,1539.8" class="style1"/><path d="M3516 1534.142c2.688 0 4.864-2.178 4.864-4.863c0-2.687-2.179-4.864-4.864-4.864h-8.084c-1.778 0-3.22-1.441-3.22-3.22 c0-1.779 1.441-3.221 3.22-3.221h11.304v-1.645h-11.304c-2.688 0-4.864 2.178-4.864 4.865c0 2.7 2.2 4.9 4.9 4.863H3516 c1.778 0 3.2 1.4 3.2 3.221c0 1.778-1.44 3.22-3.22 3.22h-12.949v1.645L3516 1534.142L3516 1534.142z"/><rect x="3524.2" y="1516.3" width="1.6" height="17.8"/><path d="M3542.034 1534.142c2.687 0 4.864-2.178 4.864-4.863c0-2.687-2.179-4.864-4.864-4.864h-8.084 c-1.778 0-3.222-1.441-3.222-3.22c0-1.779 1.442-3.221 3.222-3.221h11.304v-1.645h-11.304c-2.688 0-4.864 2.178-4.864 4.9 c0 2.7 2.2 4.9 4.9 4.863h8.084c1.778 0 3.2 1.4 3.2 3.221c0 1.778-1.441 3.22-3.22 3.22h-12.948v1.645 L3542.034 1534.142L3542.034 1534.142z"/><path d="M3566.355 1525.235c0 4.011-3.252 7.262-7.263 7.262s-7.263-3.251-7.263-7.262v-8.907h-1.645v8.907 c0 4.9 4 8.9 8.9 8.905s8.906-3.986 8.906-8.905v-8.907h-1.645v8.907H3566.355z"/></svg>